<?xml version="1.0" encoding="UTF-8"?>
<!DOCTYPE svg PUBLIC "-//W3C//DTD SVG 1.1//EN" "http://www.w3.org/Graphics/SVG/1.1/DTD/svg11.dtd">
<!-- Creator: CorelDRAW X8 -->
<svg xmlns="http://www.w3.org/2000/svg" xml:space="preserve" width="384px" height="384px" version="1.1" shape-rendering="geometricPrecision" text-rendering="geometricPrecision" image-rendering="optimizeQuality" fill-rule="evenodd" clip-rule="evenodd"
viewBox="0 0 384 384"
 xmlns:xlink="http://www.w3.org/1999/xlink">
 <g id="Layer_x0020_1">
  <metadata id="CorelCorpID_0Corel-Layer"/>
  <g id="_1836331063584">
   <path fill="white" d="M150 213c-26,0 -22,-27 -22,-43 -23,0 -42,4 -42,-24 0,-8 9,-18 23,-18l19 0c0,-11 -2,-27 5,-34 13,-16 37,-7 37,11l0 23c16,0 43,-4 43,22 0,8 -6,16 -12,19 -6,2 -28,-1 -30,2 -3,3 0,24 -2,29 -3,6 -10,13 -19,13zm-150 -153l0 179c0,23 18,46 38,54 8,3 16,6 26,6l171 0c34,0 64,-30 64,-64l0 -171c0,-34 -29,-64 -60,-64l-179 0c-30,0 -60,30 -60,60z"/>
   <path fill="white" d="M64 361c0,13 9,23 20,23l198 0c52,0 102,-50 102,-102l0 -198c0,-23 -37,-29 -43,-3 -1,7 0,166 0,185 0,23 -2,39 -19,56 -7,7 -13,11 -22,15 -11,4 -18,4 -33,4 -19,0 -178,-1 -185,0 -9,1 -18,9 -18,20z"/>
  </g>
 </g>
</svg>
