<?xml version="1.0" encoding="UTF-8"?>
<!DOCTYPE svg PUBLIC "-//W3C//DTD SVG 1.1//EN" "http://www.w3.org/Graphics/SVG/1.1/DTD/svg11.dtd">
<!-- Creator: CorelDRAW X8 -->
<svg xmlns="http://www.w3.org/2000/svg" xml:space="preserve" width="512px" height="512px" version="1.1" shape-rendering="geometricPrecision" text-rendering="geometricPrecision" image-rendering="optimizeQuality" fill-rule="evenodd" clip-rule="evenodd"
viewBox="0 0 512 512"
 xmlns:xlink="http://www.w3.org/1999/xlink">
 <g id="Layer_x0020_1">
  <metadata id="CorelCorpID_0Corel-Layer"/>
  <path fill="#0183FF" d="M262 346c6,0 41,-18 44,-18 4,-1 6,3 2,6 -2,3 -4,5 -6,7 -11,8 -50,50 -74,34 -10,-8 -7,-26 -5,-41 5,-24 14,-56 21,-80 2,-7 11,-33 11,-39 -10,1 -39,19 -47,17 -2,-3 -1,-4 1,-7 12,-12 26,-26 41,-34 11,-6 39,-18 47,-1 3,6 1,13 -1,19 -4,18 -39,126 -34,137zm27 -228c14,-5 25,5 25,18 0,7 -2,13 -5,17 -15,19 -38,11 -39,-8 0,-13 7,-23 19,-27zm-210 125c0,32 5,55 17,81 28,61 92,105 160,105 32,0 55,-5 81,-17 60,-28 105,-91 105,-160 0,-32 -4,-55 -17,-81 -28,-60 -91,-105 -159,-105 -33,0 -56,5 -82,17 -60,28 -105,91 -105,160z"/>
  <path fill="#FDFFFF" d="M262 346c-5,-11 30,-119 34,-137 2,-6 4,-13 1,-19 -8,-17 -36,-5 -47,1 -15,8 -29,22 -41,34 -2,3 -3,4 -1,7 8,2 37,-16 47,-17 0,6 -9,32 -11,39 -7,24 -16,56 -21,80 -2,15 -5,33 5,41 24,16 63,-26 74,-34 2,-2 4,-4 6,-7 4,-3 2,-7 -2,-6 -3,0 -38,18 -44,18z"/>
  <path fill="#FDFFFF" d="M289 118c-12,4 -19,14 -19,27 1,19 24,27 39,8 3,-4 5,-10 5,-17 0,-13 -11,-23 -25,-18z"/>
 </g>
</svg>
