<?xml version="1.0" encoding="UTF-8"?>
<!DOCTYPE svg PUBLIC "-//W3C//DTD SVG 1.1//EN" "http://www.w3.org/Graphics/SVG/1.1/DTD/svg11.dtd">
<!-- Creator: CorelDRAW X8 -->
<svg xmlns="http://www.w3.org/2000/svg" xml:space="preserve" width="200px" height="200px" version="1.1" shape-rendering="geometricPrecision" text-rendering="geometricPrecision" image-rendering="optimizeQuality" fill-rule="evenodd" clip-rule="evenodd"
viewBox="0 0 200 200"
 xmlns:xlink="http://www.w3.org/1999/xlink">
 <g id="Layer_x0020_1">
  <metadata id="CorelCorpID_0Corel-Layer"/>
  <rect fill="none" width="200" height="200"/>
  <g id="_1849571449200">
   <path fill="white" d="M65 64c0,-35 50,-52 69,-15 9,17 1,38 -18,48 -22,11 -51,-7 -51,-33zm-13 -3l0 6c0,23 23,46 47,46l5 0c24,0 46,-23 46,-46l0 -6c0,-23 -22,-46 -46,-46l-5 0c-13,0 -26,8 -32,14 -5,5 -7,8 -10,14 -2,4 -5,12 -5,18z"/>
   <path fill="white" d="M23 189c1,0 4,-1 5,-2l9 -14c15,-19 41,-30 64,-30 16,0 28,4 41,10 22,12 32,33 34,34 5,5 14,-1 9,-9 -1,-2 -2,-3 -3,-5 -10,-15 -21,-24 -36,-32l-12 -5c-43,-17 -95,3 -117,43 -1,2 -1,4 0,6 1,2 3,4 6,4z"/>
  </g>
 </g>
</svg>
