<?xml version="1.0" encoding="UTF-8"?>
<!DOCTYPE svg PUBLIC "-//W3C//DTD SVG 1.1//EN" "http://www.w3.org/Graphics/SVG/1.1/DTD/svg11.dtd">
<!-- Creator: CorelDRAW X8 -->
<svg xmlns="http://www.w3.org/2000/svg" xml:space="preserve" width="6047px" height="6047px" version="1.1" shape-rendering="geometricPrecision" text-rendering="geometricPrecision" image-rendering="optimizeQuality" fill-rule="evenodd" clip-rule="evenodd"
viewBox="0 0 6047 6047"
 xmlns:xlink="http://www.w3.org/1999/xlink">
 <g id="Layer_x0020_1">
  <metadata id="CorelCorpID_0Corel-Layer"/>
  <g id="_2409644224544">
   <path fill="#EE404C" d="M2770 4399c-99,-346 445,-457 506,-123 74,333 -407,444 -506,123zm173 -2273c160,-49 309,25 333,173 25,74 13,890 13,1050 0,173 -25,309 -173,346 -173,49 -309,-37 -346,-173 -12,-86 0,-902 0,-1050 0,-173 12,-309 173,-346l0 0zm-2360 2607c0,136 62,247 149,321 86,74 185,111 346,111l3903 0c148,0 247,-37 334,-111 210,-161 160,-408 49,-618 -321,-506 -704,-1210 -1013,-1742l-581 -988c-61,-123 -370,-667 -432,-741 -111,-148 -358,-173 -506,-86 -149,74 -186,172 -272,321 -358,605 -791,1371 -1149,2001l-568 988c-62,87 -99,173 -148,247 -50,74 -112,185 -112,297z"/>
   <path fill="#FEF6EC" d="M2943 2126c-161,37 -173,173 -173,346 0,148 -13,964 0,1050 37,136 173,222 346,173 148,-37 173,-173 173,-346 0,-160 12,-976 -13,-1050 -24,-148 -173,-222 -333,-173l0 0z"/>
   <path fill="#FEF6EC" d="M2770 4399c99,321 580,210 506,-123 -61,-334 -605,-223 -506,123z"/>
  </g>
 </g>
</svg>
